<svg width="24" height="24" viewBox="0 0 24 24" fill="none" xmlns="http://www.w3.org/2000/svg">
<path d="M15 13L19 9M19 9L15 5M19 9H8C6.93913 9 5.92172 9.42143 5.17157 10.1716C4.42143 10.9217 4 11.9391 4 13C4 14.0609 4.42143 15.0783 5.17157 15.8284C5.92172 16.5786 6.93913 17 8 17H9" stroke="#4B465C" stroke-width="1.5" stroke-linecap="round" stroke-linejoin="round"/>
<path d="M15 13L19 9M19 9L15 5M19 9H8C6.93913 9 5.92172 9.42143 5.17157 10.1716C4.42143 10.9217 4 11.9391 4 13C4 14.0609 4.42143 15.0783 5.17157 15.8284C5.92172 16.5786 6.93913 17 8 17H9" stroke="white" stroke-opacity="0.2" stroke-width="1.5" stroke-linecap="round" stroke-linejoin="round"/>
</svg>
